<?xml version="1.0" ?><!DOCTYPE svg  PUBLIC '-//W3C//DTD SVG 1.1//EN'  'http://www.w3.org/Graphics/SVG/1.1/DTD/svg11.dtd'><svg enableBackground="new 0 0 91 91" height="91px" id="Layer_1" version="1.1" viewBox="0 0 91 91" width="91px" xml:space="preserve" xmlns="http://www.w3.org/2000/svg" xmlns:xlink="http://www.w3.org/1999/xlink"><g><g><g><path d="M38.668,53.11c0.697-0.02,1.299-0.057,1.71-0.107c1.086-0.137,1.712-2.344,1.705-5.947     c-1.137-0.246-2.278-0.604-3.423-1.056c-0.095-0.037-0.19-0.077-0.287-0.116c-0.448-0.185-0.899-0.384-1.346-0.6     c-0.133-0.063-0.268-0.124-0.401-0.19c-0.519-0.26-1.038-0.534-1.557-0.838c-0.023-0.012-0.047-0.023-0.07-0.035     c-0.52-0.304-1.055-0.652-1.599-1.026c-0.183-0.126-0.37-0.267-0.555-0.398c-0.36-0.257-0.719-0.518-1.086-0.799     c-0.244-0.188-0.49-0.384-0.736-0.583c-0.307-0.243-0.613-0.493-0.922-0.751c-0.287-0.241-0.573-0.482-0.861-0.731     c-0.262-0.228-0.523-0.458-0.786-0.693c-0.327-0.292-0.653-0.583-0.979-0.883c-0.192-0.179-0.381-0.356-0.574-0.536     c-5.662-5.307-11.106-11.721-13.23-14.295c-4.337,3.465-8.301,10.225-9.92,15.078c-0.745,2.231-0.776,4.052-0.094,5.409     c0.707,1.401,1.943,1.819,1.996,1.836l0.1,0.045l0.002-0.012l1.13,0.64c11.402,6.422,28.517,6.608,30.431,6.608L38.668,53.11z" fill="#FFFFFF"/><path d="M17.327,66.354l0.163-0.087c0.129-0.049,12.923-5.075,18.22-7.642c0.218-0.107,0.414-0.223,0.592-0.344     c0.01-0.008,0.021-0.016,0.031-0.021c0.546-0.385,0.911-0.86,1.108-1.44l0.03-0.089c0.153-0.507,0.202-1.125,0.057-1.914     c-0.069,0-0.131,0.002-0.202,0.002c-1.954,0-18.418-0.185-30.103-6.175c-0.199,4.67,0.729,10.481,2.564,15.854     c0.681,2,1.801,3.013,3.397,3.115l0.105,0.004c0.003,0,0.005,0,0.008,0c1.986,0,3.773-1.104,3.988-1.24     C17.298,66.37,17.327,66.354,17.327,66.354z" fill="#F69B77"/><path d="M30.583,79.347c0.078-0.071,0.135-0.128,0.139-0.132l7.582-9.397l3.788-4.696     c0-0.366-0.018-1.075-0.124-1.89l-0.049-0.376c-0.143-0.909-0.398-1.909-0.865-2.725c-0.376-0.66-1.202-1.317-2.404-1.919     c-0.014,0.023-0.034,0.045-0.049,0.07c-0.053,0.084-0.116,0.162-0.175,0.242c-0.102,0.145-0.211,0.281-0.332,0.413     c-0.066,0.07-0.134,0.141-0.206,0.21c-0.14,0.136-0.292,0.263-0.457,0.386c-0.067,0.052-0.133,0.104-0.203,0.154     c-0.241,0.164-0.499,0.319-0.783,0.457c-5.132,2.49-17.157,7.229-18.258,7.664c-0.367,0.233-1.857,1.116-3.632,1.411     c2.272,4.54,5.642,8.117,10.032,10.647c0.917,0.531,1.833,0.798,2.726,0.798c0.411,0,0.783-0.068,1.133-0.16     c0.685-0.179,1.247-0.487,1.64-0.763c0.003-0.004,0.009-0.006,0.011-0.008c0.195-0.137,0.345-0.262,0.452-0.354     C30.56,79.368,30.571,79.358,30.583,79.347z" fill="#FFFFFF"/><path d="M14.462,21.827c0.383,0.468,1.057,1.284,1.928,2.311c3.42,4.021,10.116,11.565,15.957,16.177     c0.048,0.037,0.098,0.079,0.147,0.116c0.514,0.404,1.021,0.777,1.519,1.128c0.07,0.049,0.143,0.107,0.212,0.155     c0.557,0.387,1.101,0.738,1.627,1.046c0.035,0.021,0.071,0.039,0.107,0.061c0.504,0.291,1.008,0.557,1.514,0.806     c0.135,0.069,0.268,0.13,0.402,0.193c0.514,0.241,1.028,0.469,1.543,0.667c0.02,0.006,0.04,0.016,0.06,0.023     c1.2,0.458,2.4,0.795,3.59,1.011l0.616,0.11c0.81,0.115,1.615,0.178,2.413,0.178c4.516,0,7.495-1.866,8.871-2.977     c4.113-3.329,5.489-6.117,5.075-10.29c-0.468-4.654-14.965-26.391-19.15-28.714c-0.313-0.172-0.687-0.257-1.145-0.257     c-3.197,0-8.851,4.073-13.392,7.344c-2.319,1.671-4.509,3.248-6.191,4.171c-5.928,3.254-6.387,5.633-6.057,6.306L14.462,21.827z" fill="#F69B77"/><path d="M78.407,66.976l-1.502-0.227c-4.137-0.639-12.262,2.119-16.971,3.903c0.016,0.07,0.021,0.15,0.033,0.224     c0.021,0.132,0.049,0.259,0.062,0.4c0.025,0.28,0.029,0.593,0.02,0.92c-0.002,0.093-0.008,0.189-0.014,0.287     c-0.021,0.371-0.054,0.764-0.114,1.211c-0.043,0.312-0.107,0.646-0.18,0.989c-0.014,0.064-0.025,0.128-0.041,0.192     c-0.083,0.359-0.178,0.727-0.283,1.104c-0.018,0.057-0.035,0.116-0.051,0.175c-0.122,0.425-0.258,0.854-0.401,1.285     c-0.014,0.038-0.027,0.075-0.039,0.114c-0.164,0.487-0.338,0.97-0.514,1.442c-0.008,0.02-0.012,0.035-0.02,0.056     c0.135,0.016,0.273,0.031,0.41,0.043c0.671,0.063,1.356,0.098,2.049,0.107c0.228,0.004,0.449,0.02,0.68,0.02     c0.333-0.004,0.665-0.027,0.999-0.041c0.449-0.018,0.898-0.027,1.355-0.064c0.128-0.012,0.251-0.031,0.376-0.043     c3.731-0.355,7.681-1.36,11.759-3.021l0.309-0.128l0.029,0.012c5.903-2.447,10.235-5.524,11.157-6.521     c0.149-0.16,0.169-0.24,0.169-0.24C87.253,68.313,81.716,67.477,78.407,66.976z" fill="#F69B77"/><path d="M76.345,77.743c-0.2,0.08-0.396,0.143-0.595,0.222c-0.338,0.13-0.682,0.255-1.026,0.381     c-0.424,0.153-0.848,0.306-1.27,0.445c-0.328,0.11-0.659,0.208-0.993,0.311c-0.448,0.139-0.896,0.278-1.337,0.4     c-0.309,0.082-0.618,0.154-0.927,0.234c-0.475,0.119-0.949,0.24-1.421,0.342c-0.301,0.065-0.609,0.116-0.916,0.175     c-0.478,0.093-0.956,0.187-1.427,0.258c-0.328,0.051-0.657,0.084-0.987,0.125c-0.455,0.057-0.915,0.114-1.364,0.153     c-0.342,0.03-0.685,0.042-1.028,0.062c-0.449,0.023-0.895,0.047-1.337,0.053c-0.127,0-0.255,0.014-0.381,0.014     c-0.257,0-0.508-0.021-0.761-0.025c-0.344-0.01-0.688-0.02-1.025-0.039c-0.37-0.021-0.735-0.058-1.101-0.093     c-0.233-0.024-0.473-0.032-0.704-0.063c-0.406,0.998-0.777,1.835-1.025,2.381c-0.088,0.198-0.164,0.365-0.215,0.475     c0,0.06-0.019,0.158-0.022,0.23c-0.008,0.092-0.012,0.17-0.029,0.285c-0.012,0.076-0.039,0.16-0.057,0.246     c-0.033,0.157-0.074,0.314-0.138,0.491c-0.012,0.041-0.014,0.072-0.031,0.115c3.823,1.685,9.604,2.832,14.445,2.832     c6.484,0,12.072-3.774,13.126-5.713C83.818,81.68,82.474,80.138,76.345,77.743z" fill="#F69B77"/><path d="M56.463,79.354c0.006-0.014,0.01-0.028,0.018-0.042c0.22-0.557,0.423-1.097,0.604-1.604     c0.014-0.039,0.027-0.074,0.039-0.112c0.193-0.543,0.363-1.058,0.511-1.538c0.004-0.016,0.01-0.03,0.014-0.046     c0.146-0.48,0.268-0.929,0.365-1.34c0.008-0.033,0.016-0.065,0.023-0.097c0.094-0.403,0.167-0.778,0.212-1.108     c0.192-1.425,0.155-2.318-0.128-2.987c0-0.004-0.002-0.004-0.002-0.008l-0.096-0.224c-0.396-0.731-1.144-1.347-2.379-2.348     c-1.179-0.96-5.578-2.324-11.888-3.708c0.03,0.561,0.028,0.956,0.021,1.142c0,0.07-0.001,0.115-0.001,0.123l-0.012,0.279     l-0.002,0.002v0.002L32.002,80.316c-0.013,0.014-0.06,0.063-0.13,0.133c-0.014,0.013-0.028,0.028-0.045,0.042     c-0.068,0.068-0.159,0.148-0.272,0.246c-0.02,0.019-0.043,0.036-0.067,0.054c-0.122,0.103-0.263,0.21-0.426,0.327     c-0.028,0.018-0.055,0.035-0.084,0.056c-0.172,0.12-0.365,0.235-0.577,0.354c-0.02,0.012-0.033,0.023-0.053,0.033     c5.838,3.979,11.456,4.554,16.684,4.554l2.156-0.009c0.443,0,0.869,0.002,1.273,0.015l0.324,0.006     c1.611,0,2.762-0.365,3.421-1.088c0.113-0.122,0.181-0.249,0.256-0.375c0.061-0.1,0.123-0.202,0.162-0.298     c0.025-0.065,0.045-0.124,0.064-0.185c0.031-0.098,0.065-0.199,0.083-0.283c0.01-0.055,0.014-0.096,0.02-0.141     c0.008-0.063,0.021-0.136,0.023-0.184c0-0.068,0-0.125,0-0.127l-0.02-0.229l0.099-0.206c0.008-0.016,0.226-0.479,0.541-1.197     c0.286-0.649,0.649-1.507,1.026-2.459H56.463z" fill="#F69B77"/></g><g><path d="M46.202,48.932c-3.899,0-7.877-1.17-11.821-3.475c-9.071-5.306-22.106-21.493-22.657-22.179l-0.118-0.161     c-0.214-0.32-0.877-1.506-0.438-3.306c0.626-2.556,3.113-4.997,7.603-7.461c1.513-0.83,3.628-2.354,5.868-3.967     c5.415-3.9,11.013-7.934,15.216-7.934c0.989,0,1.884,0.219,2.661,0.65c5.055,2.805,20.177,25.5,20.743,31.132     c0.646,6.506-2.606,10.107-6.22,13.029C54.112,47.629,50.264,48.932,46.202,48.932z M15.615,20.838     c2.091,2.556,13.478,16.243,21.068,20.684c3.236,1.894,6.439,2.854,9.52,2.854c4.075,0,6.741-1.665,7.971-2.658     c3.769-3.052,4.916-5.33,4.55-9.033C58.309,28.557,44.021,7.146,40.301,5.083c-0.088-0.05-0.251-0.077-0.447-0.077     c-2.732,0-8.408,4.088-12.551,7.074c-2.357,1.697-4.582,3.3-6.339,4.265C16.589,18.747,15.767,20.352,15.615,20.838z" fill="#434B56"/><path d="M37.432,56.254c-2.112,0-20.902-0.214-32.94-7.552c-0.74-0.304-2.439-1.193-3.489-3.236     c-1.096-2.133-1.134-4.777-0.107-7.853c1.898-5.691,6.523-13.394,11.69-17.104l1.74-1.249l1.354,1.659     c1.33,1.629,13.222,16.053,21.002,20.604c2.25,1.315,4.52,2.185,6.746,2.584l1.833,0.328l0.043,1.862     c0.052,2.28,0.212,9.217-4.429,9.804C40.07,56.201,38.88,56.254,37.432,56.254z M13.613,25.565     C9.918,29.031,6.639,34.8,5.22,39.055c-0.615,1.842-0.671,3.339-0.163,4.329c0.406,0.792,1.114,1.087,1.121,1.089l0.279,0.086     l0.248,0.153c8.899,5.513,23.503,6.984,30.728,6.984c1.427,0,2.255-0.057,2.664-0.096c0.16-0.266,0.549-1.143,0.641-3.434     c-2.13-0.577-4.261-1.485-6.355-2.709C27.246,41.284,17.605,30.311,13.613,25.565z" fill="#434B56"/><path d="M13.557,70.756c-1.804,0-5.059-0.681-6.62-5.25C5.909,62.488,3.59,54.646,4.311,47.04l0.33-3.493     l3.058,1.721c11.083,6.245,27.85,6.423,29.726,6.425c0.294,0,0.574-0.004,0.838-0.008l1.765-0.031l0.473,1.699     c1.005,3.625-0.204,6.57-3.32,8.082c-5.095,2.472-16.498,6.975-18.235,7.658C18.208,69.548,16.016,70.756,13.557,70.756     L13.557,70.756z M8.752,50.879c0.12,4.059,0.997,8.754,2.5,13.155c0.739,2.163,1.75,2.161,2.305,2.165     c1.279,0,2.749-0.816,3.073-1.035l0.208-0.141l0.235-0.09c0.129-0.052,12.872-5.055,18.118-7.6c0.473-0.23,0.901-0.502,1.048-1.1     C32.067,56.141,19.155,55.468,8.752,50.879z" fill="#434B56"/><path d="M27.418,83.788c-1.446,0-2.889-0.408-4.286-1.216c-5.319-3.066-9.305-7.503-11.844-13.181l-1.493-3.338     l3.76,0.132l0,0c1.287,0,2.758-0.809,3.081-1.025l0.206-0.137l0.231-0.09c0.129-0.052,12.872-5.055,18.118-7.6     c0.708-0.342,0.906-0.703,1-0.978l0.795-2.333l2.265,0.975c2.298,0.991,3.811,2.161,4.622,3.58     c1.588,2.784,1.464,6.533,1.444,6.951l-0.033,0.746L33.146,81.312C32.917,81.564,30.814,83.788,27.418,83.788z M16.789,70.128     c2.104,3.554,4.995,6.406,8.622,8.496c0.696,0.402,1.372,0.606,2.007,0.606c1.267,0,2.173-0.81,2.321-0.952l11.021-13.657     c-0.038-1.04-0.228-2.696-0.846-3.782c-0.063-0.107-0.261-0.387-0.804-0.765c-0.534,0.541-1.182,0.999-1.933,1.361     c-5.096,2.474-16.512,6.98-18.237,7.66C18.562,69.327,17.788,69.763,16.789,70.128z" fill="#434B56"/><path d="M50.894,89.248c-0.136,0-0.275-0.002-0.419-0.006c-0.375-0.012-0.769-0.014-1.183-0.014l-2.151,0.008     c-6.144,0-12.795-0.736-19.813-6.08l-3.777-2.877l4.607-1.148c0.861-0.214,1.464-0.742,1.589-0.86l11.007-13.642     c-0.013-0.331-0.042-0.751-0.101-1.213l-0.414-3.189l3.148,0.667c11.777,2.501,13.681,4.05,14.305,4.56     c2.995,2.432,4.395,3.798,3.759,8.438c-0.456,3.354-2.726,8.496-3.427,10.022c-0.068,0.8-0.357,2.091-1.407,3.236     C55.34,88.541,53.415,89.248,50.894,89.248z M49.292,84.669c0.461,0,0.901,0.004,1.318,0.018l0.283,0.004     c1.14,0,2.001-0.226,2.362-0.619c0.192-0.211,0.238-0.5,0.238-0.502l-0.056-0.615l0.266-0.56c0.777-1.637,2.869-6.469,3.23-9.12     c0.316-2.308,0.316-2.308-2.089-4.261c-0.573-0.467-3.192-1.555-9.547-3.026l-0.01,0.28L33.137,81.321     c-0.021,0.023-0.068,0.072-0.138,0.141c5.141,2.935,9.945,3.217,14.141,3.217L49.292,84.669z" fill="#434B56"/><path d="M61.442,82.354c-1.523,0-3.024-0.109-4.465-0.328L54.142,81.6l1.056-2.665     c1.215-3.069,1.615-4.772,1.737-5.662c0.199-1.473,0.08-1.982-0.027-2.237l-0.919-2.165l2.194-0.851     c5.287-2.044,12.617-4.483,17.507-4.483c0.647,0,1.253,0.041,1.799,0.125l1.492,0.229c7.314,1.103,10.871,1.748,11.766,4.312     c0.187,0.533,0.478,1.929-0.836,3.342C87.871,73.741,75.068,82.354,61.442,82.354z M60.473,77.776     c0.322,0.012,0.646,0.018,0.97,0.018c10.063,0,19.923-5.487,23.686-8.178c-1.84-0.468-4.713-0.901-6.829-1.222l-1.503-0.227     c-0.318-0.049-0.69-0.075-1.106-0.075c-2.986,0-7.949,1.24-14.098,3.511c0.025,0.67-0.023,1.417-0.142,2.283     C61.307,74.944,60.979,76.246,60.473,77.776z" fill="#434B56"/><path d="M70.778,90.875c-5.617,0-12.452-1.45-16.621-3.528l-2.391-1.189l1.553-2.176     c0.129-0.18,0.175-0.426,0.175-0.426l-0.05-0.605l0.26-0.55c0.008-0.016,0.754-1.604,1.528-3.572l2.118,0.703l0.302-2.012     c5.331,0.8,11.458-0.159,17.933-2.795l0.836-0.342l0.842,0.326c8.484,3.266,9.238,5.311,9.56,6.185     c0.328,0.889,0.268,1.825-0.172,2.635C84.763,87.005,77.781,90.875,70.778,90.875z M58.014,84.054     c3.598,1.347,8.619,2.264,12.765,2.264c5.099,0,9.59-2.58,11.268-4.228c-0.816-0.601-2.527-1.575-5.596-2.805     c-6.245,2.421-12.212,3.424-17.688,2.953c-0.305,0.716-0.565,1.298-0.734,1.669C58.023,83.952,58.02,84.002,58.014,84.054z" fill="#434B56"/></g></g></g></svg>